<svg 
  xmlns="http://www.w3.org/2000/svg" 
  width="35" 
  height="31" 
  fill="none" 
  viewBox="0 0 35 31"
  ><path fill="#ffe789" d="M18.963 0c-3.2 0-6.27 1.261-8.533 3.506a11.92 11.92 0 0 0-3.534 8.465c0 3.175 1.27 6.22 3.534 8.465a12.12 12.12 0 0 0 8.533 3.507 8.65 8.65 0 0 0 6.095-2.505 8.52 8.52 0 0 0 2.524-6.046 8.52 8.52 0 0 0-2.524-6.047 8.65 8.65 0 0 0-6.095-2.504 5.2 5.2 0 0 0-3.657 1.503 5.1 5.1 0 0 0-1.515 3.627 5.1 5.1 0 0 0 1.515 3.628 5.2 5.2 0 0 0 3.657 1.503c.457 0 .895-.18 1.219-.5a1.704 1.704 0 0 0 0-2.42c-.324-.32-.762-.5-1.22-.5a1.73 1.73 0 0 1-1.218-.501 1.703 1.703 0 0 1 0-2.419c.323-.32.762-.5 1.219-.5 1.371 0 2.687.54 3.657 1.502a5.1 5.1 0 0 1 1.514 3.628 5.1 5.1 0 0 1-1.514 3.628 5.2 5.2 0 0 1-3.657 1.502c-2.286 0-4.479-.9-6.095-2.504a8.52 8.52 0 0 1-2.525-6.047c0-2.267.908-4.442 2.525-6.046a8.65 8.65 0 0 1 6.095-2.505c3.2 0 6.27 1.262 8.532 3.507a11.92 11.92 0 0 1 3.535 8.465 11.92 11.92 0 0 1-3.535 8.465 12.12 12.12 0 0 1-8.532 3.506 15.58 15.58 0 0 1-10.971-4.508 15.33 15.33 0 0 1-4.544-10.884c0-.453-.182-.888-.505-1.209a1.73 1.73 0 0 0-2.438 0c-.323.32-.505.756-.505 1.21 0 4.989 1.998 9.774 5.554 13.302a19.04 19.04 0 0 0 13.409 5.51c4.115 0 8.06-1.622 10.97-4.509a15.33 15.33 0 0 0 4.545-10.883 15.33 15.33 0 0 0-4.545-10.884A15.58 15.58 0 0 0 18.963 0"
  />
</svg>